<svg xmlns="http://www.w3.org/2000/svg" width="405" height="312" viewBox="0 0 405 312">
  <path id="Shape" style="fill: #00b5ad; fill-rule: evenodd;" class="rule" d="M171,1c48.087-.512,81.656,13.008,101,26,30.436,20.443,71.582,63.789,71,130-0.558,63.486-39.622,105.739-69,126-22.081,15.229-54.343,28.533-103,28-50.869-.557-88.6-14.168-115-37a152.893,152.893,0,0,1-23-24C11.977,221.811,1.031,188.756,1,156,0.945,98.233,34.147,55.274,65,32,86.215,16,118.711,1.556,171,1Zm1,92c37.555,0,68,27.982,68,62.5S209.555,218,172,218s-68-27.982-68-62.5S134.445,93,172,93Z"/>
  <path id="Back" style="fill: #00827c; fill-rule: evenodd;" d="M90,295a174.74,174.74,0,0,0,40,13c11.515,2.2,27.336,3.287,44,3a301.535,301.535,0,0,0,34.083-2.558c3.825-.5,8.772-1.674,12.659-2.348,10.251-1.779,20.079-5.36,29.258-9.094,27.738-11.284,51.411-33,67-56,15.641-23.076,23.209-53.227,25-62,9.546-46.772,36.065-116.493,61-177-38.465-1.714-77.239,9.043-106,32-11.382,9.085-31.737,35.237-47,71-8.026,18.805-15.595,47.11-23,73-4.348,15.2-10.712,35.6-25,57-17.476,26.179-37.846,41.107-52,48a115.485,115.485,0,0,1-59,12"/>
  <path id="Front" style="fill: #00dbd1; fill-rule: evenodd;" d="M90,17A174.739,174.739,0,0,1,130,4c11.515-2.2,27.336-3.287,44-3a301.669,301.669,0,0,1,34.083,2.558c3.825,0.506,8.772,1.674,12.659,2.348C230.993,7.685,240.821,11.266,250,15c27.738,11.284,51.411,33,67,56,15.641,23.076,23.209,53.227,25,62,9.546,46.772,36.065,116.493,61,177-38.465,1.714-77.239-9.043-106-32-11.382-9.085-31.737-35.237-47-71-8.026-18.805-15.595-47.11-23-73-4.348-15.2-10.712-35.6-25-57-17.476-26.179-37.846-41.107-52-48A115.48,115.48,0,0,0,91,17"/>
</svg>
