<?xml version="1.0" encoding="utf-8"?>
<svg version="1.1" x="0px" y="0px" viewBox="0 0 2000 2000" style="enable-background:new 0 0 2000 2000;" xmlns="http://www.w3.org/2000/svg" xmlns:bx="https://boxy-svg.com">
  <path fill="#00D395" d="M 297.453 1558.724 C 247.664 1528.249 217.191 1474.132 217.191 1415.848 L 217.191 1090.47 C 217.191 1051.837 248.664 1020.532 287.296 1020.698 C 299.619 1020.698 311.773 1024.029 322.431 1030.191 L 1056.617 1458.312 C 1099.579 1483.29 1126.055 1529.25 1126.055 1579.039 L 1126.055 1916.074 C 1126.221 1962.367 1088.754 2000 1042.462 2000 C 1026.975 2000 1011.655 1995.671 998.501 1987.678 L 297.453 1558.724 Z M 1391.821 941.102 C 1434.782 966.08 1461.092 1012.206 1461.259 1061.829 L 1461.259 1745.892 C 1461.259 1766.04 1450.436 1784.69 1432.783 1794.515 L 1272.094 1884.936 C 1270.095 1886.102 1267.93 1886.935 1265.599 1887.601 L 1265.599 1507.769 C 1265.599 1458.645 1239.788 1413.019 1197.494 1387.708 L 552.728 1002.05 L 552.728 573.26 C 552.728 534.627 584.201 503.323 622.834 503.487 C 635.155 503.487 647.312 506.818 657.968 512.98 L 1391.821 941.102 Z M 1713.204 435.882 C 1756.332 460.859 1782.809 506.984 1782.809 556.774 L 1782.809 1555.892 C 1782.642 1576.377 1771.318 1595.192 1753.334 1605.015 L 1600.969 1687.277 L 1600.969 991.723 C 1600.969 942.601 1575.16 897.139 1533.194 871.829 L 874.112 476.513 L 874.112 69.871 C 874.112 57.55 877.442 45.393 883.435 34.734 C 902.919 1.433 945.714 -9.891 979.019 9.423 L 1713.204 435.882 Z" style="" bx:origin="0 0"/>
</svg>